<svg width="166" height="101" viewBox="0 0 166 101" fill="none" xmlns="http://www.w3.org/2000/svg">
<rect x="2" width="163" height="100" fill="white"/>
<line x1="13.8075" y1="62.8416" x2="109.31" y2="62.8314" stroke="#870F06" stroke-width="2.30127" stroke-linecap="round"/>
<path d="M14.0953 71.4714L16.3965 71.4714M70.1887 79.5259L102.982 79.5259M103.269 90.4569L134.049 90.4569M134.049 80.1012L164.828 80.1012M110.461 67.4442H159.938M27.9029 85.279L70.1887 85.279M1.15063 80.1012L27.0399 80.1012" stroke="#870F06" stroke-width="2.30127" stroke-linecap="round"/>
<line x1="110.461" y1="80.1012" x2="110.461" y2="62.8417" stroke="#870F06" stroke-width="2.30127" stroke-linecap="round"/>
<line x1="134.049" y1="90.4569" x2="134.049" y2="80.1012" stroke="#870F06" stroke-width="2.30127" stroke-linecap="round"/>
<line x1="1.15064" y1="99.0867" x2="1.15064" y2="80.1012" stroke="#870F06" stroke-width="2.30127" stroke-linecap="round"/>
<line x1="13.8076" y1="71.4714" x2="13.8076" y2="62.8417" stroke="#870F06" stroke-width="2.30127" stroke-linecap="round"/>
<line x1="27.6152" y1="85.2791" x2="27.6152" y2="80.1012" stroke="#870F06" stroke-width="2.30127" stroke-linecap="round"/>
<line x1="16.6843" y1="79.5259" x2="16.6843" y2="71.4714" stroke="#870F06" stroke-width="2.30127" stroke-linecap="round"/>
<line x1="70.1887" y1="85.2791" x2="70.1887" y2="79.5259" stroke="#870F06" stroke-width="2.30127" stroke-linecap="round"/>
<path d="M102.982 90.4569V79.8135" stroke="#870F06" stroke-width="2.30127" stroke-linecap="round"/>
<path d="M89.6966 69.1702H29.9052C29.2757 69.1702 28.7659 69.5948 28.7659 70.1191C28.7659 70.6435 29.2757 71.066 29.9052 71.066H89.6966C90.3236 71.066 90.836 70.6413 90.836 70.1191C90.8347 69.5959 90.3236 69.1702 89.6966 69.1702Z" fill="#870F06"/>
<path d="M34.4899 57.3744H107.731C108.115 57.3744 108.469 57.2147 108.681 56.9498C108.894 56.6849 108.929 56.3482 108.779 56.0555L102.884 44.5305C102.705 44.1799 102.293 43.9536 101.837 43.9536H97.849L82.5778 15.3416L82.5611 12.2855C82.5598 11.7719 82.0628 11.3526 81.4462 11.3419L77.9316 11.284L71.3582 0.47851C70.9707 -0.159503 69.7155 -0.159503 69.328 0.47851L62.7546 11.284L59.2183 11.3419C58.5978 11.3526 58.1021 11.7751 58.1034 12.2919L58.1124 15.0713L42.835 43.9524H39.1569C38.6677 43.9524 38.2339 44.2119 38.0794 44.5979L33.4189 56.1229C33.303 56.4124 33.3597 56.7298 33.5721 56.9775C33.7845 57.2252 34.1244 57.3732 34.4913 57.3732L34.4899 57.3744ZM39.9665 45.8495H43.5714C43.7169 45.8495 43.8533 45.8184 43.9846 45.7776C44.1211 45.8248 44.2704 45.8527 44.4288 45.8527H83.0516C83.6786 45.8527 84.1884 45.4281 84.1884 44.9037C84.1884 44.3815 83.6786 43.9569 83.0516 43.9569H45.3154L60.2866 15.6523C60.351 15.5311 60.3845 15.4003 60.3832 15.2684L60.378 13.2204L63.4807 13.1678C63.9016 13.1614 64.284 12.9619 64.4732 12.6478L70.3426 3.00345L76.212 12.6478C76.4026 12.9609 76.7836 13.1592 77.2046 13.1678L80.2918 13.2204L80.3047 15.5505C80.3047 15.6813 80.3394 15.8121 80.4025 15.9322L96.0715 45.2881C96.2543 45.6291 96.6624 45.8511 97.1104 45.8511H101.086L106.011 55.4803L36.0755 55.4814L39.9665 45.8495Z" fill="#870F06"/>
<path d="M131.375 37.4945H129.251C128.943 37.4945 128.65 37.5975 128.435 37.7819C128.221 37.9663 128.104 38.214 128.114 38.4692L128.187 40.6524L120.036 56.0614H118.268C117.791 56.0614 117.364 56.3091 117.2 56.6823L114.317 63.2299C114.19 63.5205 114.24 63.8443 114.452 64.0984C114.665 64.3536 115.014 64.5038 115.384 64.5038H156.627C156.997 64.5038 157.342 64.3547 157.556 64.1038C157.769 63.8529 157.823 63.5323 157.701 63.2428L154.952 56.6974C154.794 56.3156 154.361 56.0626 153.879 56.0626H151.931L143.592 40.4381L143.753 38.5069C143.775 38.2452 143.667 37.9868 143.451 37.7949C143.234 37.6029 142.934 37.4935 142.618 37.4935H140.591L136.998 31.5861C136.611 30.9492 135.356 30.9492 134.968 31.5861L131.375 37.4945ZM135.984 34.1104L138.879 38.8693C139.074 39.1877 139.464 39.3893 139.894 39.3893H141.397L141.301 40.542C141.288 40.6975 141.321 40.8509 141.397 40.9924L150.152 57.3921C150.334 57.7352 150.74 57.955 151.19 57.955H153.069L155.022 62.6055L117.009 62.6044L119.057 57.954H120.773C120.846 57.954 120.917 57.9389 120.989 57.9282C121.003 57.9282 121.015 57.9347 121.03 57.9347H141.194C141.821 57.9347 142.331 57.51 142.331 56.9857C142.331 56.4635 141.821 56.0389 141.194 56.0389L122.532 56.0399L130.372 41.2198C130.44 41.0922 130.474 40.9528 130.468 40.8112L130.421 39.3893H132.075C132.504 39.3893 132.896 39.1877 133.09 38.8693L135.984 34.1104Z" fill="#870F06"/>
<path d="M114.408 39.6219C120.435 39.6219 125.339 34.718 125.339 28.6922C125.339 22.6637 120.435 17.7598 114.408 17.7598C108.38 17.7598 103.477 22.6637 103.477 28.6922C103.478 34.7184 108.382 39.6219 114.408 39.6219ZM114.408 20.0196C119.188 20.0196 123.076 23.9112 123.076 28.6922C123.076 33.4732 119.188 37.3621 114.408 37.3621C109.627 37.3621 105.739 33.4732 105.739 28.6922C105.739 23.9112 109.628 20.0196 114.408 20.0196Z" fill="#F05C2E"/>
</svg>
